<?xml version="1.0" encoding="iso-8859-1"?>
<!-- Uploaded to: SVG Repo, www.svgrepo.com, Generator: SVG Repo Mixer Tools -->
<svg version="1.1" id="Layer_1" xmlns="http://www.w3.org/2000/svg" xmlns:xlink="http://www.w3.org/1999/xlink" 
	 viewBox="0 0 511.902 511.902" xml:space="preserve">
<path style="fill:#2B339B;" d="M247.5,9.001c-28.7,0-55.6,7.1-79.3,19.7c-14.8,7.7-28.3,17.6-40.1,29.4
	c-31.4,30.8-50.8,73.7-50.8,121.1c0,93.9,76.3,170.2,170.2,170.2c23.3,0,45.4-4.7,65.7-13.3c15.5-6.4,29.8-15.1,42.5-25.6
	c37.8-31.3,62-78.5,62-131.3C417.7,85.301,341.3,9.001,247.5,9.001z"/>
<polygon style="fill:#E5E5E5;" points="224.1,93.001 213.8,103.301 156.4,103.301 156.4,93.001 "/>
<polygon style="fill:#F9F9F9;" points="157.1,88.901 157.1,162.201 230.4,88.901 "/>
<path style="fill:#24067F;" d="M414.1,181.101c0,52.7-24.1,99.7-61.8,130.9c16.5-27.9,26.1-60.5,26.1-95.2
	c0-103.4-84.1-187.5-187.5-187.5c-8.7,0-17.1,0.6-25.4,1.8c23.6-12.6,50.5-19.6,79-19.6C338,11.401,414.1,87.501,414.1,181.101z"/>
<path style="fill:#FDB50D;" d="M460.8,430.201c-1.9,0-3.5-1.6-3.5-3.5v-5h-44.1v22.1c0,1.9-1.6,3.5-3.5,3.5s-3.5-1.6-3.5-3.5v-22.1
	h-44.1v5c0,1.9-1.6,3.5-3.5,3.5s-3.5-1.6-3.5-3.5v-5H311v22.1c0,1.9-1.6,3.5-3.5,3.5s-3.5-1.6-3.5-3.5v-22.1h-44.1v5
	c0,1.9-1.6,3.5-3.5,3.5s-3.5-1.6-3.5-3.5v-5h-44.1v22.1c0,1.9-1.6,3.5-3.5,3.5s-3.5-1.6-3.5-3.5v-22.1h-44.1v5
	c0,1.9-1.6,3.5-3.5,3.5s-3.5-1.6-3.5-3.5v-5h-44.1v22.1c0,1.9-1.6,3.5-3.5,3.5s-3.5-1.6-3.5-3.5v-22.1H54.7v5c0,1.9-1.6,3.5-3.5,3.5
	s-3.5-1.6-3.5-3.5v-5H12.1v78.3h453.7v-69.7h-5V430.201z"/>
<path d="M247.5,0.001c-47.8,0-91.2,18.9-123.3,49.4c-12.1,11.3-22.5,24.4-31,38.8c-15.8,26.6-24.9,57.8-24.9,91
	c0,98.8,80.4,179.2,179.2,179.2c8.3,0,16.4-0.6,24.3-1.7c16.8-2.2,32.8-6.8,47.8-13.6c63-27.6,107.1-90.7,107.1-163.9
	C426.7,80.401,346.3,0.001,247.5,0.001z M350.5,304.301c-12.1,10-25.8,18.3-40.5,24.4c-19.3,8.2-40.4,12.6-62.5,12.6
	c-89.4,0-162.1-72.7-162.1-162.1c0-45.1,18.5-86,48.4-115.4c11.3-11.2,24.1-20.7,38.2-28c22.5-12,48.2-18.8,75.5-18.8
	c89.4,0,162.1,72.7,162.1,162.1C409.6,229.501,386.6,274.501,350.5,304.301z"/>
<g>
	<rect x="157.1" y="399.601" style="fill:#F6981E;" width="44.1" height="27.1"/>
	<rect x="105.9" y="399.601" style="fill:#F6981E;" width="44.1" height="27.1"/>
	<rect x="12.1" y="399.601" style="fill:#F6981E;" width="35.6" height="27.1"/>
	<rect x="208.3" y="399.601" style="fill:#F6981E;" width="44.1" height="27.1"/>
	<rect x="54.7" y="399.601" style="fill:#F6981E;" width="44.1" height="27.1"/>
	<rect x="413.1" y="399.601" style="fill:#F6981E;" width="44.1" height="27.1"/>
	<rect x="361.9" y="399.601" style="fill:#F6981E;" width="44.1" height="27.1"/>
	<rect x="259.5" y="399.601" style="fill:#F6981E;" width="44.1" height="27.1"/>
	<rect x="310.7" y="399.601" style="fill:#F6981E;" width="44.1" height="27.1"/>
	<path style="fill:#F6981E;" d="M499.9,419.101v-19.5h-35.6v27.1h3.6c-1.9,1.8-4.4,2.9-7.1,2.9v73h41.7v-83.4h-2.6V419.101z"/>
</g>
<path d="M503.5,392.501H8.5c-4.7,0-8.5,3.8-8.5,8.5v102.4c0,4.7,3.8,8.5,8.5,8.5h494.9c4.7,0,8.5-3.8,8.5-8.5v-102.3
	C512,396.401,508.2,392.501,503.5,392.501z M494.9,494.901H17.1v-85.3h25.6v17.1c0,4.7,3.8,8.5,8.5,8.5s8.5-3.8,8.5-8.5v-17.1h34.1
	v34.1c0,4.7,3.8,8.5,8.5,8.5s8.5-3.8,8.5-8.5v-34.1h34.1v17.1c0,4.7,3.8,8.5,8.5,8.5s8.5-3.8,8.5-8.5v-17.1H196v34.1
	c0,4.7,3.8,8.5,8.5,8.5s8.5-3.8,8.5-8.5v-34.1h34.1v17.1c0,4.7,3.8,8.5,8.5,8.5c4.7,0,8.5-3.8,8.5-8.5v-17.1h34.1v34.1
	c0,4.7,3.8,8.5,8.5,8.5s8.5-3.8,8.5-8.5v-34.1h34.1v17.1c0,4.7,3.8,8.5,8.5,8.5s8.5-3.8,8.5-8.5v-17.1h34.1v34.1
	c0,4.7,3.8,8.5,8.5,8.5s8.5-3.8,8.5-8.5v-34.1h34.1v17.1c0,4.7,3.8,8.5,8.5,8.5s8.5-3.8,8.5-8.5v-17.1h25.6v85.3H494.9z"/>
<path d="M253.5,173.101l-45.2-45.1l36.7-36.6c2.4-2.5,3.2-6.1,1.8-9.3c-1.3-3.2-4.4-5.3-7.9-5.3h-85.3c-4.7,0-8.5,3.8-8.5,8.5v85.3
	c0,3.4,2,6.6,5.3,7.9c1,0.5,2.1,0.7,3.2,0.7c2.2,0,4.4-0.9,6.1-2.5l36.6-36.7l45.1,45.2c1.7,1.6,3.8,2.5,6.1,2.5
	c2.2,0,4.4-0.9,6.1-2.5C256.9,181.901,256.9,176.501,253.5,173.101z M162.1,150.101v-56.2h56.2l-8.5,8.5L162.1,150.101z"/>
</svg>