<?xml version="1.0" encoding="utf-8"?>
<!-- Uploaded to: SVG Repo, www.svgrepo.com, Generator: SVG Repo Mixer Tools -->
<svg width="800px" height="800px" viewBox="0 0 1024 1024" class="icon"  version="1.1" xmlns="http://www.w3.org/2000/svg"><path d="M284.245333 960.064L64.042667 739.84 739.754667 64.149333 959.957333 284.373333z" fill="#FFA000" /><path d="M486.464 516.010667l-99.541333-99.541334 30.165333-30.165333 99.541333 99.541333zM529.344 388.224l-55.808-55.808 30.165333-30.165333 55.808 55.808zM657.152 345.344l-99.541333-99.541333 30.165333-30.165334 99.541333 99.541334zM643.306667 160.917333l30.186666-30.165333 55.786667 55.808-30.165333 30.165333zM187.946667 729.557333l-55.808-55.808 30.165333-30.165333 55.808 55.808zM315.754667 686.677333l-99.541334-99.541333 30.165334-30.165333 99.541333 99.541333zM358.656 558.890667l-55.808-55.808 30.165333-30.165334 55.808 55.808z" fill="#9E6400" /></svg>